PathFileType	4	(X/Y/Z)	C:\Users\dbl\Desktop\20210112\20210112\bx_n_5_902.trc
DataRate	CameraRate	NumFrames	NumMarkers	Units	OrigDataRate	OrigDataStartFrame	OrigNumFrames
50.00	50.00	       5	43	mm	50.00	477	       545
Frame#	Time	Top.Head			R.Acromium			L.Acromium			Sternum			R.ASIS			L.ASIS			V.Sacral			R.Thigh.Upper			R.Thigh.Front			R.Thigh.Rear			R.Knee.Lat			R.Knee.Med			R.Shank.Upper			R.Shank.Front			R.Shank.Rear			R.Ankle.Lat			R.Midfoot.Lat			R.Toe.Lat			R.Toe.Tip			R.Toe.Med			R.Ankle.Med			R.Midfoot.Sup			R.Heel			L.Thigh.Upper			L.Thigh.Front			L.Thigh.Rear			L.Knee.Lat			L.Knee.Med			L.Shank.Upper			L.Shank.Front			L.Shank.Rear			L.Ankle.Lat			L.Midfoot.Lat			L.Toe.Lat			L.Toe.Tip			L.Toe.Med			L.Ankle.Med			L.Midfoot.Sup			L.Heel			origin1 front left			origin2 front right			origin 3 back right			origin 4 back leftt			
		X1	Y1	Z1	X2	Y2	Z2	X3	Y3	Z3	X4	Y4	Z4	X5	Y5	Z5	X6	Y6	Z6	X7	Y7	Z7	X8	Y8	Z8	X9	Y9	Z9	X10	Y10	Z10	X11	Y11	Z11	X12	Y12	Z12	X13	Y13	Z13	X14	Y14	Z14	X15	Y15	Z15	X16	Y16	Z16	X17	Y17	Z17	X18	Y18	Z18	X19	Y19	Z19	X20	Y20	Z20	X21	Y21	Z21	X22	Y22	Z22	X23	Y23	Z23	X24	Y24	Z24	X25	Y25	Z25	X26	Y26	Z26	X27	Y27	Z27	X28	Y28	Z28	X29	Y29	Z29	X30	Y30	Z30	X31	Y31	Z31	X32	Y32	Z32	X33	Y33	Z33	X34	Y34	Z34	X35	Y35	Z35	X36	Y36	Z36	X37	Y37	Z37	X38	Y38	Z38	X39	Y39	Z39	X40	Y40	Z40	X41	Y41	Z41	X42	Y42	Z42	X43	Y43	Z43	

477	9.520	-727.74866	100.40025	1843.66687	-699.88110	-81.85306	1535.39722	-699.02637	278.65106	1531.73914	-583.60052	91.86954	1357.59973	-565.27618	-18.71143	1052.55713	-573.45929	230.18895	1064.45105	-769.47162	82.51833	1050.36426	-631.76599	-84.29536	870.38428	-564.27643	-10.69350	800.47644	-659.34180	-70.55817	756.85767	-691.63794	-44.95132	617.85767	-684.01837	65.07502	575.47821	-702.31958	-41.68213	568.40808	-655.84595	7.69020	518.43555	-748.10687	-53.65407	489.21848	-758.30994	-22.13773	207.10509	-648.42822	-68.39750	161.13345	-605.40924	-73.26482	158.06155	-547.52026	-23.73369	163.63023	-599.86755	27.65307	167.42119	-719.58746	68.13556	217.15225	-674.86896	52.52316	160.23567	-793.84778	36.93617	174.66019	-661.13715	274.46591	873.80646	-567.09155	214.82553	789.24640	-674.59534	261.85669	744.45306	-709.34961	244.01707	644.01917	-676.31030	138.82120	574.02454	-714.60175	242.06844	577.38562	-663.18054	201.14841	533.27203	-757.60223	252.54340	505.20837	-767.32806	226.90208	206.48267	-659.64429	297.44565	158.30255	-623.59619	305.91769	159.10632	-555.14508	254.88643	164.56392	-591.41541	217.51109	173.17380	-712.22186	152.49866	215.99005	-675.18756	171.76143	157.64780	-795.92474	178.58310	184.36768	-528.13397	304.63354	146.78647	-517.61084	-72.76963	143.33932	-875.84930	-78.70434	141.25356	-882.57104	296.22220	144.74983	
478	9.540	-727.76740	100.54303	1843.72839	-700.33881	-81.80290	1535.39429	-699.41119	278.58701	1531.71826	-584.07220	91.78329	1357.63623	-565.58569	-18.71474	1052.56360	-573.71216	230.22476	1064.44495	-769.69489	82.51836	1050.28381	-632.00439	-84.31042	870.43732	-564.54663	-10.65073	800.51062	-659.55872	-70.59372	756.85626	-691.83252	-44.99562	617.85608	-684.07562	65.02900	575.48889	-702.51941	-41.70916	568.37396	-656.00336	7.54350	518.56366	-748.18854	-53.67956	489.24194	-758.32617	-22.13150	207.07794	-648.40765	-68.39265	161.09792	-605.34625	-73.25174	158.01375	-547.52722	-23.71890	163.61870	-599.88837	27.67916	167.43898	-719.68005	68.10788	217.19568	-674.87714	52.52468	160.25810	-793.85065	36.91101	174.65665	-661.20178	274.54211	873.85583	-567.31128	214.76965	789.33344	-674.73505	261.81271	744.42914	-709.39026	244.04202	644.04242	-676.35333	138.84831	574.00037	-714.66162	242.05540	577.34845	-663.20868	201.16270	533.29156	-757.61658	252.55348	505.19385	-767.31152	226.91472	206.47311	-659.64465	297.46597	158.33318	-623.58356	305.90219	159.12329	-555.15527	254.90166	164.58138	-591.39661	217.51132	173.18207	-712.33630	152.54185	215.98251	-675.17346	171.73671	157.65204	-795.92340	178.60150	184.35280	-528.12421	304.65961	146.77783	-517.61346	-72.75348	143.33295	-875.85181	-78.70255	141.25296	-882.59088	296.21951	144.74840	
479	9.560	-727.85522	100.66208	1843.79822	-700.80035	-81.76543	1535.38586	-699.84912	278.48032	1531.70129	-584.51508	91.78223	1357.67249	-565.83972	-18.68381	1052.59058	-573.93982	230.30988	1064.44397	-769.88446	82.52528	1050.26660	-632.23920	-84.34894	870.50592	-564.80109	-10.60549	800.56152	-659.81158	-70.61993	756.83246	-691.97382	-45.03051	617.81677	-684.08698	64.99738	575.50189	-702.71814	-41.70460	568.31885	-656.16125	7.45961	518.67114	-748.26379	-53.70361	489.25137	-758.34833	-22.15632	207.04619	-648.39478	-68.39886	161.08475	-605.30908	-73.25361	157.97095	-547.51434	-23.71443	163.61020	-599.90588	27.71899	167.43134	-719.74426	68.06469	217.20805	-674.90222	52.50742	160.24951	-793.84418	36.87783	174.66194	-661.29510	274.56091	873.87128	-567.54993	214.72414	789.40063	-674.86127	261.73459	744.36029	-709.45459	244.08090	644.05560	-676.47583	138.89586	574.00342	-714.76691	242.02628	577.26898	-663.23468	201.18723	533.30981	-757.64368	252.56764	505.16614	-767.31616	226.92221	206.45085	-659.64832	297.49768	158.34837	-623.57343	305.90701	159.12001	-555.14606	254.89888	164.59694	-591.39722	217.52576	173.16582	-712.36029	152.56773	215.97368	-675.18933	171.74536	157.63503	-795.92596	178.61978	184.34456	-528.12909	304.67758	146.77161	-517.62927	-72.72882	143.32321	-875.86304	-78.70139	141.24345	-882.58398	296.20944	144.73605	
480	9.580	-728.01495	100.74778	1843.88477	-701.25647	-81.72834	1535.39673	-700.30591	278.40674	1531.69397	-584.93939	91.83090	1357.69006	-566.08600	-18.62128	1052.64038	-574.15314	230.40915	1064.44751	-770.10767	82.57085	1050.32300	-632.47150	-84.39080	870.56891	-565.04596	-10.55975	800.62451	-660.08258	-70.63913	756.81671	-692.07336	-45.05001	617.78107	-684.07813	64.97878	575.51453	-702.89874	-41.68248	568.25696	-656.27966	7.39191	518.74066	-748.34363	-53.70943	489.26434	-758.35406	-22.20975	207.00850	-648.38757	-68.41207	161.09102	-605.30994	-73.26951	157.97302	-547.48877	-23.72441	163.60428	-599.91516	27.75772	167.40733	-719.77130	68.02287	217.19139	-674.95349	52.47160	160.22565	-793.82391	36.84309	174.65668	-661.45038	274.51331	873.85443	-567.76404	214.70453	789.43976	-674.97296	261.64999	744.28070	-709.54419	244.10081	644.04803	-676.66113	138.93436	574.05646	-714.90857	241.98671	577.15350	-663.26801	201.20612	533.31970	-757.68433	252.57629	505.13663	-767.33063	226.91736	206.41766	-659.65948	297.52328	158.34190	-623.57440	305.92288	159.09865	-555.11499	254.87619	164.59300	-591.40900	217.54066	173.13469	-712.25928	152.56488	215.98547	-675.22241	171.78554	157.61288	-795.93079	178.62790	184.34019	-528.14825	304.66418	146.76559	-517.64178	-72.71558	143.32379	-875.87811	-78.70297	141.22772	-882.55933	296.19464	144.71466	
481	9.600	-728.23956	100.81935	1843.98474	-701.68842	-81.66417	1535.43396	-700.74927	278.47632	1531.71960	-585.36786	91.89382	1357.69336	-566.37524	-18.54093	1052.70056	-574.37317	230.50079	1064.43750	-770.40387	82.65587	1050.41980	-632.71790	-84.41836	870.60474	-565.28265	-10.51197	800.68231	-660.32733	-70.62620	756.80151	-692.17206	-45.05526	617.78851	-684.06824	64.97050	575.52264	-703.03766	-41.65507	568.21118	-656.33905	7.33727	518.76617	-748.42572	-53.68678	489.28772	-758.32733	-22.25820	206.96744	-648.38251	-68.42578	161.10104	-605.33105	-73.28226	158.00247	-547.46869	-23.73714	163.60516	-599.91699	27.79230	167.39395	-719.77130	67.99857	217.16032	-675.01654	52.43193	160.21396	-793.80072	36.81913	174.63155	-661.67572	274.44208	873.82794	-567.93060	214.72940	789.47577	-675.09583	261.59528	744.21539	-709.65521	244.09143	644.01599	-676.87024	138.95114	574.14752	-715.05469	241.96568	577.03784	-663.31989	201.21837	533.32074	-757.74261	252.58444	505.11295	-767.34222	226.91429	206.39342	-659.67670	297.52249	158.31224	-623.58478	305.92966	159.08354	-555.07727	254.84825	164.56956	-591.41455	217.53902	173.11322	-712.05981	152.51926	216.04231	-675.24884	171.83421	157.60484	-795.93799	178.62820	184.33504	-528.16016	304.62274	146.75526	-517.63843	-72.71839	143.32613	-875.88562	-78.70576	141.21790	-882.53528	296.17426	144.68518	
